# Blender v2.69 (sub 0) OBJ File: 'kitbox.blend'
# www.blender.org
mtllib kitbox.mtl
o Plane_Plane.003
v -0.206814 -0.502004 0.243266
v 0.230361 -0.502004 0.243266
v -0.206814 -0.502004 -0.193910
v 0.230361 -0.502004 -0.193910
vn 0.000000 -1.000000 0.000000
usemtl 0
s off
f 2//1 1//1 3//1 4//1
o Cube_Cube.004
v 0.425866 0.302743 0.747738
v 0.425866 0.302743 -0.483157
v -0.451560 0.302743 -0.483157
v -0.451560 0.302743 0.747738
v 0.425866 -0.574684 0.747738
v 0.425866 -0.574684 -0.483157
v -0.451560 -0.574684 -0.483157
v -0.451560 -0.574684 0.747738
vn -1.000000 -0.000000 0.000000
vn 0.000000 0.000000 1.000000
vn 1.000000 -0.000000 0.000000
vn 0.000000 0.000000 -1.000000
vn 0.000000 -1.000000 -0.000000
vn 0.000000 1.000000 -0.000000
usemtl 1
s off
f 9//2 6//2 10//2
f 10//3 7//3 11//3
f 11//4 8//4 12//4
f 12//5 5//5 9//5
f 5//6 7//6 6//6
f 12//7 10//7 11//7
f 5//2 6//2 9//2
f 6//3 7//3 10//3
f 7//4 8//4 11//4
f 8//5 5//5 12//5
f 8//6 7//6 5//6
f 9//7 10//7 12//7
o Cube.003
v 0.243569 0.150238 0.013512
v 0.243569 0.150238 -0.184831
v -0.281699 0.150238 -0.184831
v -0.281699 0.150238 0.013512
v 0.243569 -0.107864 0.013512
v 0.243569 -0.107864 -0.184831
v -0.281699 -0.107864 -0.184831
v -0.281699 -0.107864 0.013512
vn 1.000000 0.000000 0.000000
vn 0.000000 0.000000 -1.000000
vn -1.000000 0.000000 0.000000
vn -0.000000 0.000000 1.000000
vn 0.000000 1.000000 -0.000000
vn 0.000000 -1.000000 -0.000000
usemtl 6
s off
f 17//8 18//8 14//8
f 18//9 19//9 15//9
f 19//10 20//10 16//10
f 20//11 17//11 13//11
f 13//12 14//12 15//12
f 20//13 19//13 18//13
f 13//8 17//8 14//8
f 14//9 18//9 15//9
f 15//10 19//10 16//10
f 16//11 20//11 13//11
f 16//12 13//12 15//12
f 17//13 20//13 18//13
o Curve_Mesh.017
v -0.204213 -0.051563 -0.106396
v -0.113483 -0.051563 -0.107312
v -0.113483 -0.020656 -0.107305
v -0.140008 -0.020656 -0.107037
v -0.140008 0.085879 -0.107016
v -0.177687 0.085879 -0.106635
v -0.177688 -0.020656 -0.106657
v -0.204213 -0.020656 -0.106390
v -0.060432 0.085741 -0.107819
v -0.018520 0.085741 -0.108241
v 0.031285 0.032259 -0.108755
v 0.031285 0.001637 -0.108761
v -0.016966 -0.051700 -0.108285
v -0.060149 -0.051700 -0.107850
v -0.004549 0.017445 -0.108397
v -0.104450 0.085741 -0.107374
v -0.066778 0.085741 -0.107755
v -0.066778 -0.051563 -0.107783
v -0.104450 -0.051563 -0.107403
v -0.203857 -0.051570 -0.071121
v -0.113127 -0.051570 -0.072036
v -0.113127 -0.020663 -0.072030
v -0.139652 -0.020663 -0.071762
v -0.139652 0.085871 -0.071740
v -0.177331 0.085871 -0.071360
v -0.177332 -0.020663 -0.071382
v -0.203857 -0.020663 -0.071114
v -0.060076 0.085734 -0.072543
v -0.018164 0.085734 -0.072966
v 0.031641 0.032252 -0.073480
v 0.031641 0.001630 -0.073486
v -0.016610 -0.051707 -0.073010
v -0.059793 -0.051707 -0.072575
v -0.004193 0.017438 -0.073121
v -0.104094 0.085734 -0.072099
v -0.066422 0.085734 -0.072479
v -0.066422 -0.051570 -0.072508
v -0.104094 -0.051570 -0.072127
vn -0.010090 0.000206 -0.999949
vn -0.010091 0.000206 -0.999949
vn 0.010090 -0.000206 0.999949
vn 0.010091 -0.000206 0.999949
vn -0.773876 -0.633291 0.007679
vn 0.000002 1.000000 0.000206
vn -0.000002 -1.000000 -0.000206
vn -0.999949 0.000001 0.010091
vn 0.999949 -0.000000 -0.010091
vn -0.999949 0.000000 0.010091
vn -0.999949 0.000000 0.010090
vn -0.779250 0.626662 0.007993
vn 0.731765 0.681519 -0.007244
vn 0.999949 -0.000001 -0.010091
vn 0.741525 -0.670882 -0.007621
vn 0.999949 0.000000 -0.010090
usemtl 2
s off
f 30//14 35//14 29//14
f 21//15 27//15 22//15
f 31//15 35//15 30//15
f 32//14 35//14 31//14
f 39//14 37//14 38//14
f 28//15 27//15 21//15
f 33//15 35//15 32//15
f 24//15 26//15 25//15
f 27//15 26//15 24//15
f 22//15 27//15 24//15
f 22//14 24//14 23//14
f 36//14 37//14 39//14
f 34//14 35//14 33//14
f 49//16 48//16 54//16
f 40//17 41//17 46//17
f 50//17 49//17 54//17
f 51//17 50//17 54//17
f 58//17 57//17 56//17
f 47//17 40//17 46//17
f 52//17 51//17 54//17
f 43//17 44//17 45//17
f 46//17 43//17 45//17
f 41//17 43//17 46//17
f 41//17 42//17 43//17
f 55//16 58//16 56//16
f 53//17 52//17 54//17
f 29//18 35//18 54//18
f 48//19 49//19 30//19
f 21//20 22//20 41//20
f 40//21 47//21 28//21
f 56//22 57//22 38//22
f 36//23 39//23 58//23
f 26//24 27//24 46//24
f 53//25 54//25 34//25
f 49//26 50//26 31//26
f 50//22 51//22 32//22
f 57//20 58//20 39//20
f 55//19 56//19 37//19
f 25//19 26//19 45//19
f 52//20 53//20 34//20
f 22//27 23//27 42//27
f 51//28 52//28 33//28
f 27//19 28//19 47//19
f 24//29 25//29 44//29
f 23//19 24//19 43//19
f 48//18 29//18 54//18
f 29//19 48//19 30//19
f 40//20 21//20 41//20
f 21//24 40//24 28//24
f 37//22 56//22 38//22
f 55//23 36//23 58//23
f 45//24 26//24 46//24
f 30//26 49//26 31//26
f 31//22 50//22 32//22
f 38//20 57//20 39//20
f 36//19 55//19 37//19
f 44//19 25//19 45//19
f 33//20 52//20 34//20
f 41//29 22//29 42//29
f 32//28 51//28 33//28
f 46//19 27//19 47//19
f 43//29 24//29 44//29
f 42//19 23//19 43//19
f 54//25 35//25 34//25
o Curve.003_Mesh.018
v 0.147697 -0.001326 -0.109937
v 0.149476 0.000879 -0.109954
v 0.151211 0.003118 -0.109971
v 0.152903 0.005392 -0.109988
v 0.154548 0.007700 -0.110004
v 0.156147 0.010041 -0.110020
v 0.157697 0.012414 -0.110035
v 0.159197 0.014820 -0.110049
v 0.160646 0.017258 -0.110064
v 0.162041 0.019728 -0.110077
v 0.163382 0.022228 -0.110090
v 0.164666 0.024759 -0.110103
v 0.165894 0.027321 -0.110114
v 0.040318 0.085741 -0.108835
v 0.148053 -0.001334 -0.074662
v 0.149832 0.000872 -0.074679
v 0.151567 0.003111 -0.074696
v 0.153259 0.005385 -0.074713
v 0.154904 0.007693 -0.074729
v 0.156503 0.010033 -0.074744
v 0.158053 0.012407 -0.074760
v 0.159553 0.014813 -0.074774
v 0.161002 0.017251 -0.074788
v 0.162397 0.019720 -0.074802
v 0.163738 0.022221 -0.074815
v 0.165022 0.024752 -0.074827
v 0.166249 0.027313 -0.074839
v 0.040674 0.085734 -0.073560
vn -0.010092 0.000206 -0.999949
vn -0.010090 0.000207 -0.999949
vn -0.010094 0.000205 -0.999949
vn -0.010090 0.000208 -0.999949
vn -0.010092 0.000204 -0.999949
vn -0.010091 0.000206 -0.999949
vn -0.010088 0.000206 -0.999949
vn -0.010091 0.000207 -0.999949
vn 0.010091 -0.000206 0.999949
vn 0.010088 -0.000207 0.999949
vn 0.010091 -0.000205 0.999949
vn 0.010091 -0.000208 0.999949
vn 0.010091 -0.000204 0.999949
vn 0.010091 -0.000207 0.999949
vn 0.010089 -0.000207 0.999949
vn 0.010092 -0.000206 0.999949
vn 0.010090 -0.000206 0.999949
vn 0.010092 -0.000205 0.999949
vn 0.010090 -0.000207 0.999949
vn -0.629765 -0.776761 0.006195
vn 0.802302 -0.596861 -0.008219
vn 0.825732 -0.564000 -0.008449
vn 0.881247 -0.472571 -0.008990
vn 0.790392 -0.612547 -0.008102
vn 0.859659 -0.510793 -0.008780
vn 0.901775 -0.432109 -0.009189
vn 0.891656 -0.452621 -0.009091
vn 0.814083 -0.580689 -0.008335
vn 0.870574 -0.491957 -0.008886
vn 0.837217 -0.546804 -0.008561
vn 0.421773 0.906693 -0.004069
vn 0.778375 -0.627749 -0.007984
vn 0.848537 -0.529065 -0.008672
vn 0.802303 -0.596860 -0.008219
vn 0.825730 -0.564002 -0.008449
vn 0.881244 -0.472576 -0.008990
vn 0.790394 -0.612545 -0.008102
vn 0.859662 -0.510788 -0.008780
vn 0.901774 -0.432111 -0.009189
vn 0.814082 -0.580689 -0.008335
vn 0.870575 -0.491956 -0.008886
vn 0.837222 -0.546796 -0.008561
vn 0.421772 0.906693 -0.004069
vn 0.778374 -0.627750 -0.007984
vn 0.848538 -0.529064 -0.008672
usemtl 9
s off
f 61//30 72//30 62//30
f 62//31 72//31 63//31
f 63//32 72//32 64//32
f 64//33 72//33 65//33
f 65//34 72//34 66//34
f 66//31 72//31 67//31
f 67//31 72//31 68//31
f 68//35 72//35 69//35
f 69//35 72//35 70//35
f 61//36 60//36 72//36
f 70//37 72//37 71//37
f 72//31 60//31 59//31
f 75//38 76//38 86//38
f 76//39 77//39 86//39
f 77//40 78//40 86//40
f 78//41 79//41 86//41
f 79//42 80//42 86//42
f 80//43 81//43 86//43
f 81//44 82//44 86//44
f 82//45 83//45 86//45
f 83//46 84//46 86//46
f 75//47 86//47 74//47
f 84//48 85//48 86//48
f 86//43 73//43 74//43
f 72//49 59//49 86//49
f 61//50 62//50 76//50
f 63//51 64//51 78//51
f 68//52 69//52 83//52
f 60//53 61//53 75//53
f 66//54 67//54 81//54
f 70//55 71//55 85//55
f 69//56 70//56 84//56
f 62//57 63//57 77//57
f 67//58 68//58 82//58
f 64//59 65//59 79//59
f 86//60 85//60 71//60
f 59//61 60//61 74//61
f 65//62 66//62 80//62
f 75//63 61//63 76//63
f 77//64 63//64 78//64
f 82//65 68//65 83//65
f 74//66 60//66 75//66
f 80//67 66//67 81//67
f 84//68 70//68 85//68
f 83//56 69//56 84//56
f 76//69 62//69 77//69
f 81//70 67//70 82//70
f 78//71 64//71 79//71
f 72//72 86//72 71//72
f 73//73 59//73 74//73
f 79//74 65//74 80//74
f 59//49 73//49 86//49
o Curve.004_Mesh.019
v 0.040318 0.085741 -0.108835
v 0.098872 -0.038861 -0.109452
v 0.101465 -0.037638 -0.109478
v 0.104023 -0.036368 -0.109503
v 0.106546 -0.035050 -0.109528
v 0.109033 -0.033686 -0.109553
v 0.111485 -0.032275 -0.109578
v 0.113902 -0.030817 -0.109602
v 0.116283 -0.029311 -0.109626
v 0.118629 -0.027759 -0.109649
v 0.120940 -0.026159 -0.109672
v 0.123214 -0.024513 -0.109694
v 0.125454 -0.022819 -0.109717
v 0.127657 -0.021078 -0.109739
v 0.040674 0.085734 -0.073560
v 0.099228 -0.038868 -0.074177
v 0.101821 -0.037645 -0.074203
v 0.104379 -0.036375 -0.074228
v 0.106902 -0.035058 -0.074253
v 0.109389 -0.033693 -0.074278
v 0.111841 -0.032282 -0.074303
v 0.114258 -0.030824 -0.074327
v 0.116639 -0.029319 -0.074350
v 0.118985 -0.027766 -0.074374
v 0.121295 -0.026167 -0.074397
v 0.123570 -0.024520 -0.074419
v 0.125809 -0.022826 -0.074442
v 0.128013 -0.021085 -0.074463
vn -0.010091 0.000206 -0.999949
vn -0.010090 0.000207 -0.999949
vn -0.010091 0.000207 -0.999949
vn -0.010093 0.000206 -0.999949
vn -0.010088 0.000206 -0.999949
vn -0.010093 0.000205 -0.999949
vn -0.010092 0.000206 -0.999949
vn -0.010089 0.000206 -0.999949
vn 0.010093 -0.000206 0.999949
vn 0.010089 -0.000207 0.999949
vn 0.010090 -0.000207 0.999949
vn 0.010089 -0.000206 0.999949
vn 0.010087 -0.000206 0.999949
vn 0.010092 -0.000205 0.999949
vn 0.010092 -0.000206 0.999949
vn 0.534269 -0.845296 -0.005566
vn 0.426667 -0.904398 -0.004492
vn 0.774108 0.633006 -0.007681
vn 0.551809 -0.833950 -0.005740
vn 0.462816 -0.886441 -0.004853
vn 0.444756 -0.895640 -0.004673
vn -0.904993 -0.425330 0.009045
vn 0.480822 -0.876804 -0.005033
vn 0.498748 -0.866731 -0.005211
vn 0.586333 -0.810047 -0.006084
vn 0.569172 -0.822197 -0.005913
vn 0.603264 -0.797517 -0.006252
vn 0.619944 -0.784620 -0.006417
vn 0.516570 -0.856228 -0.005389
vn 0.534267 -0.845298 -0.005566
vn 0.551808 -0.833951 -0.005740
vn 0.462815 -0.886442 -0.004853
vn 0.498749 -0.866731 -0.005212
vn 0.586332 -0.810048 -0.006084
vn 0.569173 -0.822197 -0.005913
vn 0.426666 -0.904398 -0.004492
vn 0.619943 -0.784620 -0.006418
vn 0.516572 -0.856227 -0.005389
vn 0.603265 -0.797517 -0.006252
usemtl 8
s off
f 96//75 87//75 97//75
f 97//76 87//76 98//76
f 95//77 87//77 96//77
f 94//78 87//78 95//78
f 93//75 87//75 94//75
f 92//75 87//75 93//75
f 91//79 87//79 92//79
f 90//80 87//80 91//80
f 89//81 87//81 90//81
f 98//78 87//78 99//78
f 87//82 100//82 99//82
f 87//78 89//78 88//78
f 110//83 111//83 101//83
f 111//84 112//84 101//84
f 109//85 110//85 101//85
f 108//83 109//83 101//83
f 107//86 108//86 101//86
f 106//87 107//87 101//87
f 105//87 106//87 101//87
f 104//88 105//88 101//88
f 103//87 104//87 101//87
f 112//89 113//89 101//89
f 101//86 113//86 114//86
f 101//89 102//89 103//89
f 94//90 95//90 109//90
f 88//91 89//91 102//91
f 101//92 114//92 100//92
f 95//93 96//93 110//93
f 90//94 91//94 105//94
f 89//95 90//95 104//95
f 87//96 88//96 102//96
f 91//97 92//97 106//97
f 92//98 93//98 107//98
f 97//99 98//99 112//99
f 96//100 97//100 111//100
f 98//101 99//101 112//101
f 99//102 100//102 114//102
f 93//103 94//103 108//103
f 108//104 94//104 109//104
f 87//92 101//92 100//92
f 109//105 95//105 110//105
f 104//106 90//106 105//106
f 103//95 89//95 104//95
f 101//96 87//96 102//96
f 105//97 91//97 106//97
f 106//107 92//107 107//107
f 111//108 97//108 112//108
f 110//109 96//109 111//109
f 89//110 103//110 102//110
f 113//111 99//111 114//111
f 107//112 93//112 108//112
f 99//113 113//113 112//113
o Curve.005_Mesh.020
v 0.040318 0.085741 -0.108835
v 0.040180 -0.051563 -0.108862
v 0.044086 -0.051533 -0.108902
v 0.046854 -0.051446 -0.108929
v 0.049610 -0.051302 -0.108957
v 0.052352 -0.051101 -0.108985
v 0.055081 -0.050846 -0.109012
v 0.057795 -0.050537 -0.109040
v 0.060495 -0.050174 -0.109067
v 0.063179 -0.049760 -0.109094
v 0.065848 -0.049295 -0.109121
v 0.068501 -0.048780 -0.109147
v 0.071137 -0.048216 -0.109174
v 0.073756 -0.047604 -0.109200
v 0.040674 0.085734 -0.073560
v 0.040536 -0.051570 -0.073587
v 0.044442 -0.051541 -0.073626
v 0.047210 -0.051453 -0.073654
v 0.049966 -0.051309 -0.073682
v 0.052708 -0.051109 -0.073710
v 0.055437 -0.050853 -0.073737
v 0.058151 -0.050544 -0.073765
v 0.060851 -0.050182 -0.073792
v 0.063535 -0.049767 -0.073819
v 0.066204 -0.049302 -0.073846
v 0.068857 -0.048787 -0.073872
v 0.071493 -0.048223 -0.073899
v 0.074112 -0.047611 -0.073925
vn -0.010090 0.000206 -0.999949
vn -0.010094 0.000206 -0.999949
vn -0.010093 0.000206 -0.999949
vn -0.010091 0.000206 -0.999949
vn -0.010089 0.000206 -0.999949
vn -0.010092 0.000206 -0.999949
vn -0.010087 0.000206 -0.999949
vn 0.010091 -0.000206 0.999949
vn 0.010094 -0.000206 0.999949
vn 0.010090 -0.000206 0.999949
vn 0.010092 -0.000206 0.999949
vn 0.010088 -0.000206 0.999949
vn 0.010089 -0.000206 0.999949
vn 0.190588 -0.981668 -0.002126
vn 0.113216 -0.993569 -0.001347
vn 0.132992 -0.991116 -0.001546
vn -0.999949 0.000999 0.010091
vn 0.031541 -0.999502 -0.000524
vn 0.227475 -0.973781 -0.002496
vn 0.072867 -0.997341 -0.000941
vn 0.969915 0.243250 -0.009737
vn 0.052318 -0.998630 -0.000734
vn 0.152484 -0.988304 -0.001742
vn 0.007511 -0.999972 -0.000282
vn 0.171687 -0.985150 -0.001936
vn 0.209186 -0.977873 -0.002312
vn 0.093170 -0.995650 -0.001145
vn 0.190590 -0.981667 -0.002125
vn 0.227473 -0.973781 -0.002496
vn 0.152485 -0.988304 -0.001742
vn 0.007512 -0.999972 -0.000282
vn 0.171686 -0.985150 -0.001936
vn 0.093171 -0.995650 -0.001146
usemtl 2
s off
f 118//114 115//114 119//114
f 119//115 115//115 120//115
f 120//116 115//116 121//116
f 121//117 115//117 122//117
f 122//118 115//118 123//118
f 123//119 115//119 124//119
f 124//114 115//114 125//114
f 115//119 117//119 116//119
f 126//119 115//119 127//119
f 118//120 117//120 115//120
f 125//119 115//119 126//119
f 127//118 115//118 128//118
f 132//121 133//121 129//121
f 133//122 134//122 129//122
f 134//123 135//123 129//123
f 135//123 136//123 129//123
f 136//124 137//124 129//124
f 137//123 138//123 129//123
f 138//123 139//123 129//123
f 129//121 130//121 131//121
f 140//124 141//124 129//124
f 132//125 129//125 131//125
f 139//125 140//125 129//125
f 141//126 142//126 129//126
f 125//127 126//127 140//127
f 121//128 122//128 135//128
f 122//129 123//129 137//129
f 115//130 116//130 130//130
f 117//131 118//131 132//131
f 127//132 128//132 142//132
f 119//133 120//133 134//133
f 128//134 115//134 142//134
f 118//135 119//135 133//135
f 123//136 124//136 138//136
f 131//137 130//137 116//137
f 124//138 125//138 139//138
f 126//139 127//139 141//139
f 120//140 121//140 135//140
f 139//141 125//141 140//141
f 136//129 122//129 137//129
f 129//130 115//130 130//130
f 131//131 117//131 132//131
f 141//142 127//142 142//142
f 133//133 119//133 134//133
f 122//128 136//128 135//128
f 132//135 118//135 133//135
f 137//143 123//143 138//143
f 117//144 131//144 116//144
f 138//145 124//145 139//145
f 140//139 126//139 141//139
f 134//146 120//146 135//146
f 115//134 129//134 142//134
o Curve.008_Mesh.021
v 0.174928 0.052156 -0.110201
v 0.175605 0.054849 -0.110207
v 0.176223 0.057564 -0.110212
v 0.176783 0.060301 -0.110218
v 0.177286 0.063058 -0.110222
v 0.177731 0.065834 -0.110226
v 0.178121 0.068630 -0.110229
v 0.178454 0.071443 -0.110232
v 0.178732 0.074272 -0.110234
v 0.178955 0.077118 -0.110236
v 0.179123 0.079979 -0.110237
v 0.179237 0.082853 -0.110238
v 0.179298 0.085741 -0.110238
v 0.040318 0.085741 -0.108835
v 0.175284 0.052148 -0.074925
v 0.175961 0.054841 -0.074932
v 0.176579 0.057557 -0.074937
v 0.177139 0.060293 -0.074942
v 0.177642 0.063050 -0.074947
v 0.178087 0.065827 -0.074951
v 0.178477 0.068622 -0.074954
v 0.178810 0.071435 -0.074957
v 0.179088 0.074265 -0.074959
v 0.179311 0.077111 -0.074961
v 0.179479 0.079971 -0.074962
v 0.179593 0.082846 -0.074962
v 0.179654 0.085734 -0.074963
v 0.040674 0.085734 -0.073560
vn -0.010091 0.000206 -0.999949
vn -0.010091 0.000208 -0.999949
vn -0.010090 0.000206 -0.999949
vn -0.010090 0.000205 -0.999949
vn -0.010091 0.000207 -0.999949
vn -0.010091 0.000205 -0.999949
vn 0.010091 -0.000206 0.999949
vn 0.010090 -0.000208 0.999949
vn 0.010090 -0.000205 0.999949
vn 0.010090 -0.000206 0.999949
vn 0.010091 -0.000207 0.999949
vn 0.010091 -0.000205 0.999949
vn 0.998222 -0.058748 -0.010085
vn -0.242060 -0.970259 0.002243
vn 0.999727 -0.021069 -0.010093
vn 0.993002 -0.117671 -0.010045
vn 0.987306 -0.158515 -0.009996
vn 0.000002 1.000000 0.000206
vn 0.979634 -0.200547 -0.009927
vn 0.995164 -0.097706 -0.010062
vn 0.975001 -0.221981 -0.009884
vn 0.983728 -0.179388 -0.009964
vn 0.999159 -0.039755 -0.010091
vn 0.996897 -0.078075 -0.010076
vn 0.969805 -0.243682 -0.009837
vn 0.990390 -0.137940 -0.010023
vn 0.998222 -0.058749 -0.010085
vn 0.999727 -0.021076 -0.010093
vn 0.993002 -0.117666 -0.010045
vn 0.987306 -0.158517 -0.009996
vn 0.979633 -0.200553 -0.009927
vn 0.995163 -0.097718 -0.010062
vn 0.975001 -0.221980 -0.009884
vn 0.983728 -0.179389 -0.009964
vn 0.996897 -0.078072 -0.010076
vn 0.969805 -0.243683 -0.009836
vn 0.999158 -0.039760 -0.010091
vn 0.990390 -0.137937 -0.010023
usemtl 10
s off
f 145//147 156//147 146//147
f 146//148 156//148 147//148
f 147//149 156//149 148//149
f 148//147 156//147 149//147
f 149//150 156//150 150//150
f 150//147 156//147 151//147
f 151//149 156//149 152//149
f 152//147 156//147 153//147
f 156//149 144//149 143//149
f 145//147 144//147 156//147
f 153//151 156//151 154//151
f 154//152 156//152 155//152
f 159//153 160//153 170//153
f 160//154 161//154 170//154
f 161//153 162//153 170//153
f 162//153 163//153 170//153
f 163//155 164//155 170//155
f 164//156 165//156 170//156
f 165//153 166//153 170//153
f 166//153 167//153 170//153
f 170//153 157//153 158//153
f 159//153 170//153 158//153
f 167//157 168//157 170//157
f 168//158 169//158 170//158
f 152//159 153//159 167//159
f 157//160 170//160 156//160
f 154//161 155//161 169//161
f 149//162 150//162 164//162
f 147//163 148//163 162//163
f 155//164 156//164 170//164
f 145//165 146//165 160//165
f 150//166 151//166 165//166
f 144//167 145//167 159//167
f 146//168 147//168 161//168
f 153//169 154//169 167//169
f 151//170 152//170 166//170
f 143//171 144//171 158//171
f 148//172 149//172 162//172
f 166//173 152//173 167//173
f 143//160 157//160 156//160
f 168//174 154//174 169//174
f 163//175 149//175 164//175
f 161//176 147//176 162//176
f 169//164 155//164 170//164
f 159//177 145//177 160//177
f 164//178 150//178 165//178
f 158//179 144//179 159//179
f 160//180 146//180 161//180
f 165//181 151//181 166//181
f 157//182 143//182 158//182
f 154//183 168//183 167//183
f 149//184 163//184 162//184
